<svg xmlns="http://www.w3.org/2000/svg" width="25" height="20" viewBox="0 0 25 20">
  <path id="Icon_instagram" d="M12.5,7.11C8.95,7.11,6.089,9.4,6.089,12.238S8.95,17.365,12.5,17.365s6.408-2.289,6.408-5.128S16.045,7.11,12.5,7.11Zm0,8.461c-2.292,0-4.166-1.5-4.166-3.334S10.2,8.9,12.5,8.9s4.166,1.5,4.166,3.334S14.79,15.571,12.5,15.571ZM20.663,6.9a1.368,1.368,0,0,1-1.495,1.2,1.367,1.367,0,0,1-1.495-1.2,1.371,1.371,0,0,1,1.495-1.2A1.371,1.371,0,0,1,20.663,6.9Zm4.244,1.214a5.327,5.327,0,0,0-2.019-4.191,8.563,8.563,0,0,0-5.237-1.616c-2.064-.094-8.249-.094-10.312,0A8.554,8.554,0,0,0,2.1,3.919,5.344,5.344,0,0,0,.083,8.11c-.117,1.651-.117,6.6,0,8.252A5.327,5.327,0,0,0,2.1,20.552a8.574,8.574,0,0,0,5.237,1.616c2.064.094,8.249.094,10.312,0a8.506,8.506,0,0,0,5.237-1.616,5.361,5.361,0,0,0,2.019-4.191c.117-1.651.117-6.6,0-8.247ZM22.241,18.133a3.9,3.9,0,0,1-2.376,1.9c-1.645.522-5.549.4-7.368.4s-5.728.116-7.368-.4a3.9,3.9,0,0,1-2.376-1.9c-.653-1.317-.5-4.44-.5-5.9s-.145-4.583.5-5.9a3.9,3.9,0,0,1,2.376-1.9c1.645-.522,5.549-.4,7.368-.4s5.728-.116,7.368.4a3.9,3.9,0,0,1,2.376,1.9c.653,1.317.5,4.44.5,5.9S22.893,16.821,22.241,18.133Z" transform="translate(0.005 -2.238)" fill="#f8f5f5"/>
</svg>
