<svg xmlns="http://www.w3.org/2000/svg" width="25" height="20" viewBox="0 0 25 20">
  <path id="Icon_youtube" d="M25.528,7.629A3.389,3.389,0,0,0,23.317,5.1c-1.95-.6-9.767-.6-9.767-.6s-7.818,0-9.767.6a3.389,3.389,0,0,0-2.21,2.531A42.549,42.549,0,0,0,1.05,14.52a42.549,42.549,0,0,0,.522,6.891A3.33,3.33,0,0,0,3.783,23.9c1.95.6,9.767.6,9.767.6s7.818,0,9.767-.6a3.33,3.33,0,0,0,2.21-2.491,42.549,42.549,0,0,0,.522-6.891,42.549,42.549,0,0,0-.522-6.891ZM10.993,18.749V10.291l6.534,4.229-6.534,4.229Z" transform="translate(-1.05 -4.5)" fill="#f8f5f5"/>
</svg>
